<svg id="SvgjsSvg1001" width="256" height="256" xmlns="http://www.w3.org/2000/svg" version="1.1" 
xmlns:xlink="http://www.w3.org/1999/xlink" xmlns:svgjs="http://svgjs.com/svgjs"><defs id="SvgjsDefs1002"></defs><g id="SvgjsG1008"><svg 
xmlns="http://www.w3.org/2000/svg" enable-background="new 0 0 512 512" viewBox="0 0 512 512" width="256" height="256"><path 
fill="#cccccc" d="M397.706,487.103c-14.036,0-25.415-11.379-25.415-25.415v-75.474l-31.458,84.354
			c-3.707,9.942-13.201,16.535-23.813,16.535H246.1c-10.599,0-20.085-6.578-23.801-16.504l-31.983-85.421v76.51
			c0,14.036-11.378,25.415-25.415,25.415h-87.88c-14.036,0-25.415-11.379-25.415-25.415v-360.77
			c0-14.036,11.378-25.415,25.415-25.415h103.812c10.35,0,19.665,6.276,23.554,15.868l77.567,191.36l76.747-191.277
			c3.866-9.636,13.205-15.951,23.587-15.951h103.297c14.036,0,25.415,11.379,25.415,25.415v360.77
			c0,14.036-11.378,25.415-25.415,25.415H397.706z" class="colorccc svgShape"></path><path fill="#ffffff" 
d="M476.115,55.516c-0.137-0.14-12.567-12.569-12.674-12.675
			c-10.828-11.052-16.283-17.944-28.462-17.944H331.682c-10.383,0-19.721,6.315-23.587,15.951l-66.202,164.996
			c-63.623-154.857-47.357-126.82-69.795-149.586c-0.093-0.099-19.313-19.312-19.408-19.408
			
c-6.769-7.19-12.583-11.954-22.462-11.954H26.415C12.378,24.897,1,36.276,1,50.312v360.77c0,7.566,3.029,13.667,8.439,18.957
			
c0.122,0.124,25.215,25.218,25.349,25.349c9.847,10.061,15.416,16.756,27.274,16.756h87.88c14.036,0,25.415-11.379,25.415-25.415
			v-20.152c1.478,1.921,24.82,25.116,24.929,25.218c12.849,12.595,17.926,20.349,30.855,20.349h70.921
			c10.611,0,20.106-6.592,23.813-16.535l8.099-21.717c0.809,0.801,30.474,30.472,30.61,30.605
			c4.614,4.716,11.045,7.647,18.164,7.647h87.879c14.036,0,25.415-11.379,25.415-25.415V85.959
			C496.04,73.747,489.236,68.359,476.115,55.516z" class="colorfff svgShape"></path><path fill="#122047" 
d="M8.261,50.312v360.77c0,7.566,3.807,11.454,8.693,16.194c0.151,0.156,28.014,28.017,28.121,28.122
			c5.279,5.44,9.17,9.485,16.985,9.485h87.88c10.025,0,18.153-8.128,18.153-18.154v-57.051
			
c12.136,30.622,8.881,29.111,17.763,37.425c0.076,0.076,25.262,25.267,25.349,25.349c6.726,6.692,10.824,12.431,19.933,12.431
			h70.921c7.58,0,14.361-4.709,17.009-11.811l12.294-32.965c1.304,2.268,2.472,3.555,9.049,9.941
			
c0.152,0.156,24.45,24.453,24.557,24.557c5.599,5.769,9.609,10.277,17.778,10.277h87.879c10.025,0,18.153-8.128,18.153-18.154
			
V85.959c0-5.114-2.122-9.726-5.525-13.025c-0.141-0.145-31.578-31.581-31.686-31.686c-5.102-5.257-8.974-9.089-16.589-9.089
			H331.682c-7.416,0-14.087,4.511-16.847,11.394l-72.908,181.707C171.911,54.088,187.682,82.13,166.824,61.252
			c-0.088-0.094-21.551-21.552-22.576-22.576c-3.765-4.011-8.199-6.518-14.022-6.518H26.415
			C16.389,32.158,8.261,40.286,8.261,50.312z" class="color122047 svgShape"></path><path fill="#ffffff" 
d="M347.099,421.973c-6.016,0-10.892-4.877-10.892-10.892V255.102L276.62,414.887
			c-1.589,4.261-5.658,7.086-10.206,7.086h-70.921c-4.543,0-8.608-2.819-10.2-7.073l-60.106-160.537v156.717
			
c0,6.015-4.876,10.892-10.892,10.892h-87.88c-6.016,0-10.892-4.877-10.892-10.892V50.312c0-6.015,4.876-10.892,10.892-10.892
			
h103.812c4.435,0,8.428,2.69,10.094,6.8l91.095,224.734l90.157-224.698c1.657-4.13,5.659-6.836,10.109-6.836h103.297
			c6.016,0,10.892,4.877,10.892,10.892v360.77c0,6.015-4.876,10.892-10.892,10.892H347.099z" class="colorfff 
svgShape"></path><polygon fill="#62a2f9" points="343.469 414.712 343.469 214.849 268.935 414.712 192.976 414.712 117.925 214.26 117.925 
414.712 22.784 414.712 22.784 46.681 132.672 46.681 231.45 290.368 329.226 46.681 438.608 46.681 438.608 414.712" class="color62a2f9 
svgShape"></polygon><polygon fill="#ffffff" points="354.36 407.45 354.36 194.723 347.328 193.454 267.524 407.45 201.641 407.45 121.326 
192.936 114.295 194.208 114.295 407.45 33.675 407.45 33.675 53.942 131.411 53.942 235.115 309.782 337.768 53.942 434.979 53.942 434.979 
407.45" class="colorfff svgShape"></polygon><polygon fill="#85cdfa" points="350.729 407.45 350.729 194.723 343.698 193.454 263.893 
407.45 198.01 407.45 117.695 192.936 110.665 194.208 110.665 407.45 30.045 407.45 30.045 53.942 127.781 53.942 231.484 309.782 334.137 
53.942 431.348 53.942 431.348 407.45" class="color85cdfa svgShape"></polygon></svg></g></svg>
